<svg width="44" height="44" viewBox="0 0 44 44" fill="none" xmlns="http://www.w3.org/2000/svg">
<path d="M34.228 3.66675H30.7446C26.748 3.66675 24.6396 5.77508 24.6396 9.77175V13.2551C24.6396 17.2517 26.748 19.3601 30.7446 19.3601H34.228C38.2246 19.3601 40.333 17.2517 40.333 13.2551V9.77175C40.333 5.77508 38.2246 3.66675 34.228 3.66675Z" fill="white"/>
<path d="M13.2737 24.6216H9.79033C5.77533 24.6216 3.66699 26.7299 3.66699 30.7266V34.2099C3.66699 38.2249 5.77533 40.3332 9.77199 40.3332H13.2553C17.252 40.3332 19.3603 38.2249 19.3603 34.2282V30.7449C19.3787 26.7299 17.2703 24.6216 13.2737 24.6216Z" fill="white"/>
<path d="M11.532 19.3967C15.8757 19.3967 19.397 15.8755 19.397 11.5317C19.397 7.18803 15.8757 3.66675 11.532 3.66675C7.18827 3.66675 3.66699 7.18803 3.66699 11.5317C3.66699 15.8755 7.18827 19.3967 11.532 19.3967Z" fill="white"/>
<path d="M32.4685 40.3333C36.8122 40.3333 40.3335 36.812 40.3335 32.4683C40.3335 28.1246 36.8122 24.6033 32.4685 24.6033C28.1248 24.6033 24.6035 28.1246 24.6035 32.4683C24.6035 36.812 28.1248 40.3333 32.4685 40.3333Z" fill="white"/>
</svg>
