<svg width="44" height="44" viewBox="0 0 44 44" fill="none" xmlns="http://www.w3.org/2000/svg">
<g id="vuesax/linear/category-2">
<g id="category-2">
<path id="Vector" d="M31.167 18.3334H34.8337C38.5003 18.3334 40.3337 16.5001 40.3337 12.8334V9.16675C40.3337 5.50008 38.5003 3.66675 34.8337 3.66675H31.167C27.5003 3.66675 25.667 5.50008 25.667 9.16675V12.8334C25.667 16.5001 27.5003 18.3334 31.167 18.3334Z" stroke="#292D32" stroke-width="3" stroke-miterlimit="10" stroke-linecap="round" stroke-linejoin="round"/>
<path id="Vector_2" d="M9.16699 40.3334H12.8337C16.5003 40.3334 18.3337 38.5001 18.3337 34.8334V31.1667C18.3337 27.5001 16.5003 25.6667 12.8337 25.6667H9.16699C5.50033 25.6667 3.66699 27.5001 3.66699 31.1667V34.8334C3.66699 38.5001 5.50033 40.3334 9.16699 40.3334Z" stroke="#292D32" stroke-width="3" stroke-miterlimit="10" stroke-linecap="round" stroke-linejoin="round"/>
<path id="Vector_3" d="M11.0003 18.3334C15.0504 18.3334 18.3337 15.0502 18.3337 11.0001C18.3337 6.94999 15.0504 3.66675 11.0003 3.66675C6.95024 3.66675 3.66699 6.94999 3.66699 11.0001C3.66699 15.0502 6.95024 18.3334 11.0003 18.3334Z" stroke="#292D32" stroke-width="3" stroke-miterlimit="10" stroke-linecap="round" stroke-linejoin="round"/>
<path id="Vector_4" d="M33.0003 40.3334C37.0504 40.3334 40.3337 37.0502 40.3337 33.0001C40.3337 28.95 37.0504 25.6667 33.0003 25.6667C28.9502 25.6667 25.667 28.95 25.667 33.0001C25.667 37.0502 28.9502 40.3334 33.0003 40.3334Z" stroke="#292D32" stroke-width="3" stroke-miterlimit="10" stroke-linecap="round" stroke-linejoin="round"/>
</g>
</g>
</svg>
