<svg width="16" height="16" viewBox="0 0 16 16" fill="none" xmlns="http://www.w3.org/2000/svg">
<path id="Vector" d="M15.9987 8C15.9987 6.85938 15.4094 5.86312 14.5344 5.28906C14.7492 4.26156 14.4557 3.14438 13.655 2.34375C12.8544 1.53906 11.7297 1.24594 10.7063 1.46094C10.1019 0.585938 9.13312 0 7.99875 0C6.86437 0 5.86438 0.585938 5.25813 1.46094C4.25813 1.24625 3.14563 1.54312 2.3425 2.34375C1.53906 3.14375 1.24281 4.26562 1.4575 5.29063C0.57875 5.86875 0 6.86875 0 8C0 9.13125 0.5825 10.1328 1.4575 10.7109C1.24281 11.7375 1.54281 12.8562 2.3425 13.6562C3.14313 14.4609 4.25313 14.7541 5.28438 14.5391C5.86438 15.4187 6.8675 16 7.99875 16C9.13562 16 10.1281 15.4141 10.7063 14.5391C11.7375 14.7539 12.8541 14.457 13.655 13.6562C14.4597 12.8556 14.7494 11.7344 14.5344 10.7109C15.4144 10.1344 15.9987 9.13437 15.9987 8ZM5.99875 5C6.54938 5 6.97062 5.44938 6.97062 6C6.97062 6.55062 6.54875 7 5.99875 7C5.44875 7 4.99875 6.55062 4.99875 6C4.99875 5.44938 5.44875 5 5.99875 5ZM6.50813 10.5031C6.38938 10.6781 6.19875 10.75 6.005 10.75C5.81125 10.75 5.62125 10.6768 5.47469 10.5303C5.18172 10.2373 5.18172 9.76278 5.47469 9.46966L9.47469 5.46966C9.76766 5.17669 10.2422 5.17669 10.5353 5.46966C10.8284 5.76263 10.8283 6.23716 10.5353 6.53028L6.50813 10.5031ZM9.99875 11C9.44812 11 8.99875 10.5506 8.99875 10C8.99875 9.44938 9.44812 9 9.99875 9C10.5494 9 10.9987 9.44938 10.9987 10C10.9987 10.5506 10.5487 11 9.99875 11Z" fill="#99A0A7"/>
</svg>
