<svg width="18" height="15" viewBox="0 0 18 15" fill="none" xmlns="http://www.w3.org/2000/svg">
<path id="Shape" fill-rule="evenodd" clip-rule="evenodd" d="M11.7 1.35C11.7 0.604406 11.0953 0 10.35 0H1.35C0.604406 0 0 0.604406 0 1.35V10.35C0 11.0953 0.604406 11.7 1.35 11.7H1.8C1.8 13.1906 2.98406 14.4 4.5 14.4C5.99062 14.4 7.2 13.1906 7.2 11.7H10.8C10.8 13.1906 11.9841 14.4 13.5 14.4C14.9906 14.4 16.2 13.1906 16.2 11.7H17.1C17.5978 11.7 18 11.2978 18 10.8C18 10.3022 17.5978 9.9 17.1 9.9V6.67406C17.1 6.19594 16.9116 5.7375 16.5741 5.4L14.4 3.22594C14.0372 2.88844 13.6041 2.7 13.1259 2.7H11.7V1.35ZM11.6992 7.2V4.5H13.1252L15.2992 6.67406V7.2H11.6992ZM4.50039 10.3496C3.75508 10.3496 3.15039 10.9543 3.15039 11.6996C3.15039 12.4449 3.75508 13.0496 4.50039 13.0496C5.2457 13.0496 5.85039 12.4449 5.85039 11.6996C5.85039 10.9543 5.2457 10.3496 4.50039 10.3496ZM14.8504 11.6996C14.8504 12.4449 14.2457 13.0496 13.5004 13.0496C12.7551 13.0496 12.1504 12.4449 12.1504 11.6996C12.1504 10.9543 12.7551 10.3496 13.5004 10.3496C14.2457 10.3496 14.8504 10.9543 14.8504 11.6996Z" fill="#99A0A7"/>
</svg>
