<svg width="96" height="25" viewBox="0 0 96 25" fill="none" xmlns="http://www.w3.org/2000/svg">
<path d="M31 18.7508V3H35.2048V14.7269H42.4893V18.7508H31Z" fill="white"/>
<path d="M52.1648 15.5195C52.6523 15.5195 53.1296 15.4281 53.5968 15.2452C54.064 15.0623 54.4703 14.7981 54.8156 14.4526C55.1609 14.0868 55.4352 13.6397 55.6383 13.1113C55.8617 12.5829 55.9734 11.9631 55.9734 11.2518C55.9734 10.5405 55.8617 9.92063 55.6383 9.39224C55.4352 8.86385 55.1609 8.42692 54.8156 8.08143C54.4703 7.71563 54.064 7.44127 53.5968 7.25837C53.1296 7.07546 52.6523 6.98401 52.1648 6.98401C51.6773 6.98401 51.1999 7.07546 50.7327 7.25837C50.2655 7.44127 49.8592 7.71563 49.5139 8.08143C49.1686 8.42692 48.8842 8.86385 48.6608 9.39224C48.4577 9.92063 48.3561 10.5405 48.3561 11.2518C48.3561 11.9631 48.4577 12.5829 48.6608 13.1113C48.8842 13.6397 49.1686 14.0868 49.5139 14.4526C49.8592 14.7981 50.2655 15.0623 50.7327 15.2452C51.1999 15.4281 51.6773 15.5195 52.1648 15.5195ZM52.1648 3.29546C53.282 3.29546 54.3179 3.49869 55.2726 3.90514C56.2477 4.29127 57.0805 4.83998 57.7711 5.55127C58.4821 6.24224 59.0305 7.07546 59.4165 8.05095C59.8227 9.02643 60.0259 11.2518 60.0259 11.2518C60.0259 11.2518 59.8227 13.4771 59.4165 14.4526C59.0305 15.4077 58.4821 16.241 57.7711 16.9523C57.0805 17.6635 56.2477 18.2224 55.2726 18.6289C54.3179 19.015 53.282 19.2081 52.1648 19.2081C51.0476 19.2081 50.0014 19.015 49.0264 18.6289C48.0717 18.2224 47.2389 17.6635 46.5279 16.9523C45.8373 16.241 45.2888 15.4077 44.8826 14.4526C44.4966 13.4771 44.3037 12.4101 44.3037 11.2518C44.3037 10.0934 44.4966 9.02643 44.8826 8.05095C45.2888 7.07546 45.8373 6.24224 46.5279 5.55127C47.2389 4.83998 48.0717 4.29127 49.0264 3.90514C50.0014 3.49869 51.0476 3.29546 52.1648 3.29546Z" fill="white"/>
<path d="M65.8146 18.5984C65.9568 19.4316 66.3326 20.1124 66.942 20.6408C67.5513 21.1692 68.3435 21.4334 69.3186 21.4334C70.5983 21.4334 71.5835 21.0981 72.2741 20.4274C72.9647 19.7771 73.3101 18.7203 73.3101 17.2571V16.1597C73.0054 16.6474 72.5077 17.0945 71.8171 17.501C71.1264 17.8871 70.2326 18.0802 69.1357 18.0802C68.1404 18.0802 67.2162 17.8973 66.363 17.5314C65.5099 17.1656 64.7685 16.6576 64.1388 16.0073C63.5294 15.3569 63.0419 14.5948 62.6762 13.721C62.3309 12.8268 62.1583 11.8513 62.1583 10.7945C62.1583 9.79869 62.3309 8.86385 62.6762 7.98998C63.0216 7.09579 63.4989 6.31337 64.1083 5.64272C64.7177 4.97207 65.449 4.44369 66.3021 4.05756C67.1552 3.67143 68.0998 3.47836 69.1357 3.47836C70.3342 3.47836 71.2788 3.69175 71.9694 4.11853C72.66 4.5453 73.1374 5.01272 73.4015 5.52079V3.75272H77.3015V17.1352C77.3015 18.1716 77.1492 19.1573 76.8445 20.0921C76.5601 21.0473 76.1031 21.8805 75.4734 22.5918C74.8437 23.3234 74.0312 23.9026 73.0358 24.3294C72.0405 24.7765 70.842 25 69.4404 25C68.4045 25 67.4599 24.8476 66.6068 24.5427C65.774 24.2582 65.0427 23.8619 64.413 23.3539C63.7833 22.8661 63.2755 22.2869 62.8895 21.6163C62.5036 20.966 62.2598 20.2852 62.1583 19.5739L65.8146 18.5984ZM69.8365 14.605C70.8725 14.605 71.7155 14.2595 72.3655 13.5685C73.0358 12.8776 73.371 11.9529 73.371 10.7945C73.371 9.63611 73.0257 8.72159 72.335 8.05095C71.6444 7.35998 70.8116 7.0145 69.8365 7.0145C69.3287 7.0145 68.8514 7.10595 68.4045 7.28885C67.9779 7.45143 67.6021 7.70546 67.2771 8.05095C66.9521 8.37611 66.6982 8.7724 66.5154 9.23982C66.3326 9.70724 66.2412 10.2255 66.2412 10.7945C66.2412 11.9732 66.5763 12.9081 67.2466 13.599C67.917 14.2697 68.7803 14.605 69.8365 14.605Z" fill="white"/>
<path d="M88.1389 15.5195C88.6264 15.5195 89.1038 15.4281 89.571 15.2452C90.0382 15.0623 90.4444 14.7981 90.7897 14.4526C91.1351 14.0868 91.4093 13.6397 91.6124 13.1113C91.8358 12.5829 91.9476 11.9631 91.9476 11.2518C91.9476 10.5405 91.8358 9.92063 91.6124 9.39224C91.4093 8.86385 91.1351 8.42692 90.7897 8.08143C90.4444 7.71563 90.0382 7.44127 89.571 7.25837C89.1038 7.07546 88.6264 6.98401 88.1389 6.98401C87.6514 6.98401 87.174 7.07546 86.7068 7.25837C86.2396 7.44127 85.8334 7.71563 85.4881 8.08143C85.1427 8.42692 84.8584 8.86385 84.6349 9.39224C84.4318 9.92063 84.3302 10.5405 84.3302 11.2518C84.3302 11.9631 84.4318 12.5829 84.6349 13.1113C84.8584 13.6397 85.1427 14.0868 85.4881 14.4526C85.8334 14.7981 86.2396 15.0623 86.7068 15.2452C87.174 15.4281 87.6514 15.5195 88.1389 15.5195ZM88.1389 3.29546C89.2561 3.29546 90.2921 3.49869 91.2468 3.90514C92.2218 4.29127 93.0546 4.83998 93.7453 5.55127C94.4562 6.24224 95.0047 7.07546 95.3906 8.05095C95.7969 9.02643 96 10.0934 96 11.2518C96 12.4101 95.7969 13.4771 95.3906 14.4526C95.0047 15.4077 94.4562 16.241 93.7453 16.9523C93.0546 17.6635 92.2218 18.2224 91.2468 18.6289C90.2921 19.015 89.2561 19.2081 88.1389 19.2081C87.0217 19.2081 85.9756 19.015 85.0005 18.6289C84.0458 18.2224 83.213 17.6635 82.5021 16.9523C81.8114 16.241 81.263 15.4077 80.8567 14.4526C80.4708 13.4771 80.2778 12.4101 80.2778 11.2518C80.2778 10.0934 80.4708 9.02643 80.8567 8.05095C81.263 7.07546 81.8114 6.24224 82.5021 5.55127C83.213 4.83998 84.0458 4.29127 85.0005 3.90514C85.9756 3.49869 87.0217 3.29546 88.1389 3.29546Z" fill="white"/>
<g clip-path="url(#clip0_9956_81)">
<path d="M11.5 0C5.14805 0 0 5.14805 0 11.5C0 17.852 5.14805 23 11.5 23C17.852 23 23 17.852 23 11.5C23 5.14805 17.852 0 11.5 0ZM3.62609 11.5H3.57713C3.16933 11.5 2.84041 11.1401 2.87814 10.7211C3.25055 6.55859 6.58105 3.23707 10.7498 2.8777C11.1541 2.84266 11.5 3.17822 11.5 3.59779C11.5 3.97289 11.2208 4.2842 10.859 4.31609C7.39863 4.62246 4.63145 7.38066 4.31924 10.8441C4.28555 11.2125 3.98772 11.5 3.62609 11.5ZM11.5 15.7721C9.11824 15.7721 7.1875 13.8404 7.1875 11.5C7.1875 9.15957 9.11824 7.1875 11.5 7.1875C13.8818 7.1875 15.8125 9.11914 15.8125 11.5C15.8125 13.8809 13.8809 15.7721 11.5 15.7721ZM11.5 10.0625C10.7049 10.0625 10.0625 10.7004 10.0625 11.5C10.0625 12.2996 10.7049 12.9375 11.5 12.9375C12.2951 12.9375 12.9375 12.2974 12.9375 11.5C12.9375 10.7026 12.2951 10.0625 11.5 10.0625Z" fill="#87C3FC"/>
</g>
<defs>
<clipPath id="clip0_9956_81">
<rect width="23" height="23" fill="white"/>
</clipPath>
</defs>
</svg>
